<svg width="42" height="42" viewBox="0 0 42 42" fill="none" xmlns="http://www.w3.org/2000/svg">
<g id="Frame 1597881611">
<g id="Group 1597881518">
<path id="Line 1" d="M32.3632 11.7072L33.0703 11.0001L31.6561 9.58588L30.949 10.293L32.3632 11.7072ZM31.6561 11.0001L30.949 10.293L10.2929 30.9492L11 31.6563L11.7071 32.3634L32.3632 11.7072L31.6561 11.0001Z" fill="black"/>
<path id="Line 2" d="M25.9426 12.1932L26.9426 12.1932L26.9426 10.1932L25.9426 10.1932L25.9426 12.1932ZM25.9426 11.1932L25.9426 10.1932L10.9999 10.1932L10.9999 11.1932L10.9999 12.1932L25.9426 12.1932L25.9426 11.1932Z" fill="black"/>
<path id="Line 3" d="M30.4868 31.8894L30.4868 32.8894L32.4868 32.8894L32.4868 31.8894L30.4868 31.8894ZM31.4868 16.3207L30.4868 16.3207L30.4868 31.8894L31.4868 31.8894L32.4868 31.8894L32.4868 16.3207L31.4868 16.3207Z" fill="black"/>
</g>
</g>
</svg>
