<svg width="86" height="23" viewBox="0 0 86 23" fill="none" xmlns="http://www.w3.org/2000/svg">
<path d="M4.66695 2.96062C5.9068 2.96062 6.90922 3.94793 6.90922 5.16327V7.75204C7.61092 7.50845 8.36538 7.36852 9.15149 7.36852C12.8684 7.36852 15.8809 10.3279 15.8809 13.9791C15.8809 17.6303 12.8684 20.5896 9.15149 20.5896C5.4346 20.5896 2.44315 17.6484 2.42205 14.0128C2.42205 14.0024 2.42205 13.9894 2.42205 13.9791V5.16586C2.42205 3.94793 3.42711 2.96321 4.66432 2.96321M9.15413 16.1843C10.394 16.1843 11.3964 15.197 11.3964 13.9817C11.3964 12.7663 10.3913 11.779 9.15413 11.779C7.91693 11.779 6.91186 12.7663 6.91186 13.9817C6.91186 15.197 7.91693 16.1843 9.15413 16.1843ZM4.66695 0.757962C2.19254 0.757962 0.179779 2.73517 0.179779 5.16586V14.0983C0.248366 18.9001 4.25543 22.7949 9.15413 22.7949C14.0528 22.7949 18.1285 18.8405 18.1285 13.9791C18.1285 9.11769 14.1029 5.16327 9.15413 5.16327C9.15413 2.73258 7.14136 0.755371 4.66695 0.755371V0.757962Z" fill="#FED404"/>
<path d="M4.66934 3.31502C5.71715 3.31502 6.55704 4.14757 6.55704 5.16365V8.24959L7.02774 8.08651C7.69478 7.85495 8.40743 7.72228 9.15372 7.72225H9.15665C12.6838 7.72227 15.5316 10.5295 15.5316 13.9791C15.5316 17.4283 12.6736 20.2349 9.15665 20.2349C5.74926 20.2349 2.97706 17.6173 2.79141 14.3306L2.78165 14.0113V5.16365C2.78165 4.14991 3.62185 3.31506 4.66934 3.31502ZM9.15372 11.4244C7.72695 11.4245 6.55704 12.5652 6.55704 13.982C6.55728 15.3984 7.72418 16.5385 9.15372 16.5387C10.5805 16.5387 11.7502 15.3987 11.7504 13.982C11.7504 12.5651 10.5806 11.4244 9.15372 11.4244Z" fill="#231916" stroke="black" stroke-width="0.708529"/>
<path fill-rule="evenodd" clip-rule="evenodd" d="M26.8114 10.2205C27.0679 10.0266 27.3251 9.8776 27.6282 9.75122C27.9123 9.63457 28.2793 9.5879 28.7173 9.5879C29.2619 9.5879 29.7709 9.70456 30.2326 9.8912C30.6824 10.1129 31.0849 10.3928 31.4282 10.7545C31.7597 11.1161 32.0083 11.5477 32.2095 12.0377C32.3752 12.5393 32.4818 13.0876 32.4818 13.6475C32.4818 14.3241 32.3871 14.9191 32.1858 15.4557C31.9846 15.9923 31.7123 16.4356 31.3809 16.7972C31.0376 17.1588 30.6469 17.4388 30.1971 17.6371C29.7472 17.8238 29.2855 17.9171 28.8002 17.9171C28.3148 17.9171 27.936 17.8471 27.6045 17.7304C27.2612 17.6021 26.9535 17.3921 26.6575 17.1005C26.6102 17.2988 26.5273 17.4621 26.3852 17.5788C26.2432 17.6721 26.0183 17.7304 25.7223 17.7304C25.0831 17.7304 24.7753 17.3921 24.7753 16.7505L24.7753 7.34978C24.7753 6.70817 25.1067 6.36987 25.7697 6.36987H25.817C26.4681 6.36987 26.8114 6.70817 26.8114 7.34978L26.8114 10.2205ZM27.2376 15.654C26.9416 15.3157 26.7996 14.9074 26.7996 14.4058H26.8114V13.2275C26.8114 12.9826 26.8351 12.7376 26.9061 12.5043C26.9653 12.2826 27.06 12.0727 27.2021 11.886C27.3323 11.7227 27.498 11.5827 27.6993 11.466C27.9005 11.3727 28.1254 11.3144 28.4095 11.3144C28.7765 11.3144 29.0961 11.3844 29.3566 11.5127C29.617 11.6527 29.8182 11.816 29.984 12.026C30.126 12.2476 30.2444 12.5043 30.3154 12.7843C30.3628 13.0759 30.4101 13.3909 30.4101 13.6942C30.4101 14.0558 30.3628 14.3941 30.2918 14.6857C30.2089 14.989 30.0905 15.2573 29.9485 15.4673C29.7946 15.689 29.5933 15.864 29.3684 15.9806C29.1198 16.1089 28.8357 16.1673 28.5279 16.1673C27.9478 16.1673 27.5217 16.0039 27.2376 15.654Z" fill="#231916"/>
<path d="M34.3758 17.6819C34.5416 17.8568 34.7902 17.9385 35.098 17.9385C35.749 17.9385 36.0805 17.6002 36.0805 16.9586V10.9159C36.0805 10.6126 35.9858 10.3676 35.8201 10.1926C35.6543 10.0176 35.4057 9.93596 35.098 9.93596C34.7902 9.93596 34.5534 10.0293 34.3758 10.1926C34.1983 10.3559 34.1154 10.6126 34.1154 10.9159V16.9586C34.1154 17.2619 34.2101 17.5185 34.3758 17.6819Z" fill="#231916"/>
<path d="M38.2113 7.4162C38.2113 7.11289 38.2942 6.85625 38.4718 6.69293C38.6375 6.52961 38.8861 6.43629 39.1939 6.43629C39.5017 6.43629 39.7503 6.51795 39.916 6.69293C40.0817 6.85625 40.1764 7.11289 40.1764 7.4162V16.9586C40.1764 17.2619 40.0936 17.5185 39.916 17.6818C39.7503 17.8452 39.5017 17.9385 39.1939 17.9385C38.8861 17.9385 38.6375 17.8568 38.4718 17.6818C38.306 17.5185 38.2113 17.2619 38.2113 16.9586V7.4162Z" fill="#231916"/>
<path d="M42.5914 6.69293C42.4138 6.85625 42.331 7.11289 42.331 7.4162V16.9586C42.331 17.2619 42.4257 17.5185 42.5914 17.6818C42.7571 17.8568 43.0057 17.9385 43.3135 17.9385C43.6213 17.9385 43.8699 17.8452 44.0356 17.6818C44.2132 17.5185 44.2961 17.2619 44.2961 16.9586V7.4162C44.2961 7.11289 44.2013 6.85625 44.0356 6.69293C43.8699 6.51795 43.6213 6.43629 43.3135 6.43629C43.0057 6.43629 42.7571 6.52961 42.5914 6.69293Z" fill="#231916"/>
<path d="M48.163 17.3804L45.5823 11.0111C45.4403 10.6611 45.4521 10.3578 45.6297 10.1012C45.7836 9.86787 46.0558 9.73954 46.4583 9.73954C46.6951 9.73954 46.8963 9.80954 47.0739 9.92618C47.216 10.0662 47.3462 10.2645 47.4527 10.5095L49.1574 14.954L50.9331 10.5095C51.0278 10.2528 51.158 10.0662 51.3356 9.92618C51.4895 9.80954 51.6907 9.73954 51.9511 9.73954C52.3063 9.73954 52.5786 9.86787 52.7443 10.1012C52.8982 10.3578 52.91 10.6611 52.768 11.0111L48.4708 21.3961C48.3524 21.6644 48.234 21.8627 48.0683 21.9794C47.9026 22.0961 47.7013 22.166 47.4527 22.166C47.2515 22.166 47.0857 22.1194 46.9674 22.0377C46.8253 21.9561 46.7424 21.8394 46.6833 21.7111C46.6122 21.5711 46.5885 21.4311 46.6004 21.2678C46.6004 21.0812 46.6241 20.9178 46.6951 20.7545L48.163 17.3804Z" fill="#231916"/>
<path d="M58.2207 16.2489C58.0905 16.2605 57.9839 16.2605 57.8656 16.2605L57.8537 16.2955C57.5104 16.2955 57.2026 16.2372 56.9185 16.0972C56.6344 15.9922 56.3858 15.8056 56.1846 15.5839C55.9715 15.3506 55.8176 15.094 55.6992 14.7674C55.5927 14.4641 55.5335 14.1141 55.5335 13.7175C55.5335 13.3792 55.569 13.0525 55.6874 12.7492C55.7702 12.4576 55.9123 12.1893 56.1135 11.9676C56.2911 11.7343 56.5397 11.571 56.8357 11.431C57.1198 11.3144 57.4394 11.2444 57.8419 11.2444C57.9053 11.2444 57.9687 11.2471 58.0334 11.25L58.0344 11.25L58.0352 11.2501C58.1029 11.253 58.1721 11.256 58.2444 11.256L58.2447 11.2561C58.3748 11.2794 58.5049 11.3027 58.6469 11.3494C58.8955 11.431 59.1085 11.431 59.298 11.361C59.4637 11.3027 59.6176 11.1394 59.736 10.8827C59.8307 10.6378 59.8307 10.4161 59.7478 10.1945C59.6413 9.98449 59.44 9.83284 59.1322 9.75119C58.7061 9.65786 58.2799 9.59953 57.8419 9.59953C57.1671 9.59953 56.5634 9.70452 56.0425 9.90284C55.498 10.1128 55.06 10.4045 54.7048 10.7661C54.3379 11.151 54.0537 11.5827 53.8643 12.0843C53.6631 12.5976 53.5684 13.1458 53.5684 13.7641C53.5684 14.3824 53.6513 14.9307 53.8525 15.4323C54.0301 15.9456 54.3023 16.4005 54.6575 16.7622C55.0008 17.1238 55.4269 17.4154 55.936 17.6254C56.4332 17.8121 57.0132 17.9287 57.617 17.9287C58.2207 17.9287 58.7652 17.8587 59.2151 17.7421C59.5229 17.6604 59.7123 17.5088 59.8307 17.3104C59.9254 17.0888 59.9254 16.8671 59.8307 16.6105C59.7241 16.3539 59.5821 16.1905 59.3808 16.1322C59.1796 16.0972 58.9073 16.1089 58.5995 16.1789C58.4575 16.2255 58.3391 16.2489 58.2207 16.2489Z" fill="#231916"/>
<path d="M66.0929 9.74216C66.3534 9.76548 66.5309 9.87047 66.673 10.0688C66.7914 10.2788 66.8269 10.5121 66.7914 10.7921C66.7677 10.9437 66.7203 11.072 66.6612 11.1537C66.5901 11.247 66.5191 11.317 66.4362 11.3637C66.3534 11.422 66.2468 11.457 66.164 11.4803C66.0693 11.5036 65.9746 11.5036 65.8917 11.4803C65.8325 11.4803 65.7733 11.4687 65.726 11.457H65.5247C65.0394 11.457 64.6487 11.597 64.3172 11.8653C63.9739 12.1453 63.749 12.5419 63.6188 13.0668V16.9048C63.6188 17.5464 63.2755 17.8847 62.6244 17.8847H62.6126C61.9496 17.8847 61.6182 17.5464 61.6182 16.9048V10.8737C61.6182 10.2321 61.9496 9.89381 62.6126 9.89381H62.6244C63.2755 9.89381 63.6188 10.1271 63.6188 10.5821C63.9147 10.2904 64.2344 10.0688 64.554 9.9288C64.8618 9.80049 65.2406 9.73049 65.6786 9.73049H65.868C65.9022 9.73049 65.9363 9.73319 65.9718 9.73599H65.972C66.0102 9.73901 66.05 9.74216 66.0929 9.74216Z" fill="#231916"/>
<path fill-rule="evenodd" clip-rule="evenodd" d="M71.7903 16.1672C71.5653 16.2022 71.3286 16.2139 71.0918 16.2139C70.5354 16.2139 70.0974 16.0856 69.7541 15.8056C69.4108 15.549 69.1977 15.059 69.1267 14.3591H73.2345C73.5659 14.3591 73.8145 14.2774 74.0039 14.0908C74.1697 13.9158 74.2525 13.6708 74.2407 13.3325C74.1815 12.1193 73.8737 11.1977 73.3055 10.5445C72.7373 9.90286 71.8731 9.56456 70.7367 9.56456C70.1329 9.56456 69.6002 9.68121 69.1622 9.89119C68.7005 10.1128 68.3217 10.4278 68.0376 10.7894C67.718 11.1861 67.4931 11.6177 67.351 12.1076C67.1971 12.6093 67.1261 13.1575 67.1261 13.7175C67.1261 14.3591 67.209 14.954 67.4102 15.4556C67.5878 15.9806 67.8601 16.4122 68.2034 16.7622C68.5467 17.1238 68.9373 17.4038 69.4227 17.6021C69.8962 17.7887 70.4052 17.8821 70.9734 17.8821C71.3996 17.8821 71.8021 17.8587 72.1691 17.8004C72.5242 17.7304 72.903 17.6021 73.3055 17.4388C73.5896 17.2988 73.779 17.1121 73.8619 16.9022C73.9211 16.7039 73.8974 16.4822 73.7672 16.2256C73.6251 15.9806 73.4594 15.8406 73.2582 15.8173C73.0332 15.7823 72.7728 15.8406 72.4769 15.9689C72.2164 16.0856 71.9915 16.1439 71.7903 16.1672ZM70.0264 11.361C70.191 11.2916 70.4373 11.245 70.7305 11.2444C71.0002 11.245 71.2234 11.2916 71.4114 11.361C71.5772 11.4427 71.7311 11.536 71.8494 11.6644C71.9678 11.8043 72.0507 11.9443 72.1217 12.1076C72.1809 12.2943 72.2283 12.4693 72.2519 12.6676H69.1622C69.1859 12.4693 69.2451 12.2943 69.3161 12.1076C69.3753 11.9443 69.4582 11.8043 69.5766 11.6644C69.6831 11.5477 69.8252 11.4427 70.0264 11.361Z" fill="#231916"/>
<path d="M75.2706 11.3008C75.1522 10.8692 75.1877 10.5309 75.3653 10.2743C75.531 10.0526 75.8033 9.92429 76.1703 9.92429C76.6675 9.92429 76.9753 10.2159 77.1055 10.7875L78.0762 15.1154L79.26 10.7642C79.4021 10.2043 79.769 9.92429 80.3728 9.92429H80.645C81.2251 9.92429 81.5921 10.2043 81.7578 10.7642L82.9416 15.1271L83.9242 10.7875C84.0425 10.2159 84.3621 9.92429 84.8712 9.92429C85.2026 9.92429 85.4512 10.041 85.6525 10.2509C85.8419 10.4726 85.8656 10.8225 85.7472 11.3008L84.2793 17.0869C84.1372 17.6469 83.7703 17.9268 83.1902 17.9268H82.6812C82.0893 17.9268 81.7104 17.6469 81.5684 17.0869L80.5148 13.1673L79.4612 17.0869C79.3074 17.6469 78.9404 17.9268 78.3485 17.9268H77.8394C77.2475 17.9268 76.8924 17.6469 76.7503 17.0869L75.2706 11.3008Z" fill="#231916"/>
<path d="M35.1037 8.37006C35.6473 8.37006 36.088 7.93717 36.088 7.40318C36.088 6.86918 35.6473 6.43629 35.1037 6.43629C34.5601 6.43629 34.1194 6.86918 34.1194 7.40318C34.1194 7.93717 34.5601 8.37006 35.1037 8.37006Z" fill="#231916"/>
</svg>
