<svg width="87" height="24" viewBox="0 0 87 24" fill="none" xmlns="http://www.w3.org/2000/svg">
<path fill-rule="evenodd" clip-rule="evenodd" d="M3.15189 6.30557C3.51391 6.03188 3.87691 5.82157 4.30473 5.64321C4.70572 5.47857 5.22366 5.4127 5.84185 5.4127C6.61041 5.4127 7.32884 5.57735 7.98045 5.84077C8.61534 6.1536 9.18341 6.54875 9.66793 7.05915C10.1358 7.56954 10.4866 8.17873 10.7707 8.87024C11.0046 9.5782 11.1549 10.352 11.1549 11.1423C11.1549 12.0973 11.0213 12.937 10.7372 13.6943C10.4532 14.4517 10.0689 15.0773 9.60111 15.5877C9.11658 16.0981 8.56522 16.4933 7.93033 16.7732C7.29543 17.0366 6.64382 17.1683 5.9588 17.1683C5.27378 17.1683 4.73913 17.0695 4.27131 16.9049C3.78679 16.7238 3.35238 16.4274 2.93469 16.0158C2.86786 16.2957 2.75091 16.5262 2.55041 16.6908C2.34992 16.8225 2.03247 16.9049 1.61478 16.9049C0.712551 16.9049 0.278149 16.4274 0.278149 15.5219L0.278137 2.25386C0.278137 1.34832 0.745956 0.87085 1.68159 0.87085H1.74843C2.66735 0.87085 3.15188 1.34832 3.15188 2.25386L3.15189 6.30557ZM3.75338 13.9742C3.33568 13.4967 3.13518 12.9205 3.13518 12.2125H3.15189V10.5496C3.15189 10.2038 3.18531 9.85809 3.28555 9.52882C3.36909 9.21599 3.50275 8.91963 3.70325 8.65619C3.88704 8.42571 4.12095 8.22812 4.40498 8.06347C4.68901 7.93176 5.00646 7.84943 5.40744 7.84943C5.92539 7.84943 6.3765 7.94823 6.74407 8.12932C7.11164 8.32691 7.39567 8.55742 7.62958 8.85377C7.83008 9.16658 7.99715 9.52882 8.0974 9.92395C8.16423 10.3356 8.23106 10.7801 8.23106 11.2082C8.23106 11.7186 8.16423 12.1961 8.06399 12.6077C7.94703 13.0357 7.77995 13.4144 7.57946 13.7108C7.36226 14.0236 7.07822 14.2706 6.76078 14.4352C6.40991 14.6163 6.00893 14.6986 5.57453 14.6986C4.75584 14.6986 4.15436 14.4681 3.75338 13.9742Z" fill="white"/>
<path d="M13.8282 16.8363C14.0621 17.0833 14.4129 17.1985 14.8473 17.1985C15.7663 17.1985 16.2341 16.7211 16.2341 15.8155V7.28695C16.2341 6.85888 16.1004 6.51313 15.8665 6.26616C15.6326 6.01918 15.2817 5.90394 14.8473 5.90394C14.4129 5.90394 14.0788 6.03565 13.8282 6.26616C13.5775 6.49666 13.4606 6.85888 13.4606 7.28695V15.8155C13.4606 16.2436 13.5942 16.6058 13.8282 16.8363Z" fill="white"/>
<path d="M19.2415 2.3476C19.2415 1.91952 19.3584 1.55731 19.6091 1.3268C19.843 1.0963 20.1938 0.96459 20.6282 0.96459C21.0626 0.96459 21.4135 1.07984 21.6474 1.3268C21.8813 1.55731 22.015 1.91952 22.015 2.3476V15.8155C22.015 16.2436 21.898 16.6058 21.6474 16.8363C21.4135 17.0668 21.0626 17.1985 20.6282 17.1985C20.1938 17.1985 19.843 17.0833 19.6091 16.8363C19.3751 16.6058 19.2415 16.2436 19.2415 15.8155V2.3476Z" fill="white"/>
<path d="M25.4234 1.3268C25.1728 1.55731 25.0558 1.91952 25.0558 2.3476V15.8155C25.0558 16.2436 25.1895 16.6058 25.4234 16.8363C25.6573 17.0833 26.0082 17.1985 26.4426 17.1985C26.877 17.1985 27.2278 17.0668 27.4617 16.8363C27.7123 16.6058 27.8293 16.2436 27.8293 15.8155V2.3476C27.8293 1.91952 27.6956 1.55731 27.4617 1.3268C27.2278 1.07984 26.877 0.96459 26.4426 0.96459C26.0082 0.96459 25.6573 1.0963 25.4234 1.3268Z" fill="white"/>
<path d="M33.287 16.4109L29.6447 7.42134C29.4442 6.92739 29.4609 6.49932 29.7115 6.13711C29.9287 5.80783 30.313 5.62671 30.8811 5.62671C31.2152 5.62671 31.4993 5.72551 31.7499 5.89013C31.9504 6.08772 32.1342 6.36761 32.2845 6.71336L34.6905 12.9863L37.1966 6.71336C37.3303 6.35114 37.5141 6.08772 37.7647 5.89013C37.9819 5.72551 38.2659 5.62671 38.6335 5.62671C39.1347 5.62671 39.519 5.80783 39.7529 6.13711C39.9701 6.49932 39.9868 6.92739 39.7863 7.42134L33.7214 22.0785C33.5543 22.4572 33.3873 22.7371 33.1534 22.9018C32.9194 23.0664 32.6354 23.1652 32.2845 23.1652C32.0005 23.1652 31.7666 23.0993 31.5995 22.9841C31.399 22.8688 31.2821 22.7042 31.1985 22.5231C31.0983 22.3255 31.0649 22.1279 31.0816 21.8974C31.0816 21.634 31.115 21.4035 31.2152 21.173L33.287 16.4109Z" fill="white"/>
<path d="M47.4822 14.8138C47.2984 14.8303 47.1481 14.8303 46.981 14.8303L46.9643 14.8797C46.4798 14.8797 46.0453 14.7974 45.6444 14.5998C45.2434 14.4516 44.8925 14.1882 44.6085 13.8754C44.3077 13.5461 44.0905 13.1839 43.9235 12.7229C43.7731 12.2948 43.6895 11.8008 43.6895 11.2411C43.6895 10.7636 43.7397 10.3026 43.9068 9.8745C44.0237 9.4629 44.2242 9.08421 44.5082 8.77138C44.7589 8.44211 45.1097 8.2116 45.5274 8.01404C45.9284 7.84939 46.3795 7.75059 46.9476 7.75059C47.037 7.75059 47.1265 7.7545 47.2179 7.75849L47.2192 7.75856L47.2204 7.75863C47.316 7.7628 47.4136 7.76706 47.5156 7.76706L47.5161 7.76713C47.6997 7.80005 47.8834 7.83296 48.0837 7.89877C48.4346 8.01404 48.7353 8.01404 49.0026 7.91524C49.2365 7.83292 49.4537 7.60241 49.6208 7.2402C49.7545 6.89445 49.7545 6.58163 49.6375 6.2688C49.4872 5.97244 49.2031 5.7584 48.7687 5.64316C48.1672 5.51144 47.5658 5.42911 46.9476 5.42911C45.9952 5.42911 45.1431 5.57728 44.408 5.8572C43.6394 6.15356 43.0212 6.56516 42.52 7.07555C42.0021 7.61888 41.6011 8.22807 41.3337 8.93603C41.0497 9.66046 40.9161 10.4343 40.9161 11.3069C40.9161 12.1795 41.033 12.9534 41.317 13.6613C41.5677 14.3858 41.9519 15.0279 42.4532 15.5383C42.9377 16.0487 43.5392 16.4603 44.2576 16.7566C44.9593 17.0201 45.778 17.1847 46.6301 17.1847C47.4822 17.1847 48.2508 17.0859 48.8857 16.9213C49.3201 16.806 49.5874 16.592 49.7545 16.3121C49.8881 15.9993 49.8881 15.6864 49.7545 15.3242C49.6041 14.962 49.4036 14.7315 49.1196 14.6492C48.8356 14.5998 48.4513 14.6163 48.0169 14.715C47.8164 14.7809 47.6493 14.8138 47.4822 14.8138Z" fill="white"/>
<path d="M58.5929 5.63041C58.9605 5.66333 59.2111 5.81151 59.4116 6.09142C59.5787 6.38778 59.6288 6.71706 59.5787 7.11221C59.5452 7.32625 59.4784 7.50734 59.3949 7.62261C59.2946 7.75432 59.1944 7.85311 59.0774 7.91897C58.9605 8.00129 58.8101 8.05068 58.6931 8.08361C58.5595 8.11653 58.4258 8.11653 58.3089 8.08361C58.2253 8.08361 58.1418 8.06715 58.075 8.05068H57.7909C57.1059 8.05068 56.5545 8.24824 56.0867 8.62693C55.6022 9.02208 55.2847 9.58186 55.101 10.3228V15.7396C55.101 16.6451 54.6164 17.1226 53.6975 17.1226H53.6808C52.7452 17.1226 52.2773 16.6451 52.2773 15.7396V7.22745C52.2773 6.3219 52.7452 5.84445 53.6808 5.84445H53.6975C54.6164 5.84445 55.101 6.17372 55.101 6.81585C55.5187 6.40423 55.9698 6.09142 56.4209 5.89383C56.8553 5.71274 57.3899 5.61394 58.0081 5.61394H58.2754C58.3236 5.61394 58.3718 5.61776 58.4219 5.62171H58.4222C58.4762 5.62597 58.5323 5.63041 58.5929 5.63041Z" fill="white"/>
<path fill-rule="evenodd" clip-rule="evenodd" d="M66.634 14.6986C66.3165 14.748 65.9823 14.7645 65.6482 14.7645C64.8629 14.7645 64.2447 14.5834 63.7602 14.1882C63.2757 13.826 62.9749 13.1345 62.8747 12.1466H68.6723C69.1401 12.1466 69.491 12.0314 69.7583 11.7679C69.9922 11.521 70.1092 11.1752 70.0925 10.6978C70.0089 8.98546 69.5745 7.68476 68.7725 6.76277C67.9706 5.85722 66.7509 5.37975 65.147 5.37975C64.2949 5.37975 63.543 5.54439 62.9248 5.84075C62.2732 6.15358 61.7386 6.59812 61.3376 7.10851C60.8865 7.66831 60.569 8.27748 60.3685 8.96899C60.1513 9.67698 60.0511 10.4508 60.0511 11.2411C60.0511 12.1466 60.168 12.9863 60.4521 13.6943C60.7027 14.4352 61.087 15.0444 61.5715 15.5383C62.056 16.0487 62.6074 16.4438 63.2924 16.7237C63.9607 16.9872 64.6791 17.1189 65.4811 17.1189C66.0826 17.1189 66.6507 17.086 67.1686 17.0036C67.6698 16.9048 68.2045 16.7237 68.7725 16.4932C69.1735 16.2957 69.4409 16.0322 69.5578 15.7359C69.6414 15.456 69.6079 15.1432 69.4242 14.7809C69.2237 14.4352 68.9898 14.2376 68.7057 14.2047C68.3883 14.1553 68.0207 14.2376 67.603 14.4187C67.2354 14.5834 66.918 14.6657 66.634 14.6986ZM64.1445 7.91527C64.3768 7.81719 64.7244 7.75154 65.1382 7.75064C65.5189 7.75154 65.8339 7.81719 66.0993 7.91527C66.3332 8.03053 66.5504 8.16224 66.7175 8.34336C66.8846 8.54092 67.0015 8.73849 67.1018 8.96899C67.1853 9.23244 67.2521 9.47939 67.2856 9.75928H62.9248C62.9582 9.47939 63.0418 9.23244 63.142 8.96899C63.2256 8.73849 63.3425 8.54092 63.5096 8.34336C63.66 8.17871 63.8605 8.03053 64.1445 7.91527Z" fill="white"/>
<path d="M71.546 7.83028C71.379 7.22109 71.4291 6.74361 71.6797 6.3814C71.9136 6.06859 72.2979 5.88747 72.8158 5.88747C73.5176 5.88747 73.952 6.29907 74.1358 7.10585L75.5058 13.2141L77.1766 7.07291C77.3771 6.28263 77.895 5.88747 78.7471 5.88747H79.1314C79.9501 5.88747 80.468 6.28263 80.7019 7.07291L82.3727 13.2306L83.7594 7.10585C83.9265 6.29907 84.3776 5.88747 85.0961 5.88747C85.5639 5.88747 85.9147 6.05212 86.1988 6.34848C86.4661 6.66131 86.4995 7.15524 86.3325 7.83028L84.2607 15.9966C84.0602 16.7869 83.5422 17.1821 82.7236 17.1821H82.0051C81.1697 17.1821 80.6351 16.7869 80.4346 15.9966L78.9476 10.4646L77.4606 15.9966C77.2434 16.7869 76.7255 17.1821 75.8901 17.1821H75.1716C74.3362 17.1821 73.835 16.7869 73.6345 15.9966L71.546 7.83028Z" fill="white"/>
<path d="M14.8555 3.69387C15.6227 3.69387 16.2446 3.0829 16.2446 2.32923C16.2446 1.57556 15.6227 0.96459 14.8555 0.96459C14.0882 0.96459 13.4663 1.57556 13.4663 2.32923C13.4663 3.0829 14.0882 3.69387 14.8555 3.69387Z" fill="white"/>
</svg>
