<svg width="148" height="31" viewBox="0 0 148 31" fill="none" xmlns="http://www.w3.org/2000/svg">
<g id="billycash">
<path id="Vector" d="M130.144 25.7133V0H136.439V8.667H136.587C138.109 7.46825 140.048 6.86887 142.404 6.86887C146.135 6.86887 148 8.55912 148 11.9396V25.7133H141.741V13.6299C141.741 12.8866 141.557 12.3712 141.189 12.0835C140.845 11.7718 140.232 11.6159 139.348 11.6159C138.44 11.6159 137.47 11.8197 136.439 12.2273V25.7133H130.144Z" fill="black"/>
<path id="Vector_2" d="M118.741 26.0727C115.992 26.0727 113.807 25.6651 112.187 24.85V20.7502C114.151 21.4695 116.029 21.8291 117.82 21.8291C119.956 21.8291 121.023 21.3136 121.023 20.2827C121.023 19.8272 120.864 19.5035 120.545 19.3117C120.226 19.1199 119.661 18.9761 118.851 18.8802L117.121 18.6284C113.758 18.1489 112.077 16.2189 112.077 12.8384C112.077 10.9444 112.727 9.48191 114.028 8.45098C115.329 7.39608 117.268 6.86862 119.845 6.86862C122.324 6.86862 124.325 7.19229 125.846 7.83961V11.9034C123.981 11.352 122.251 11.0763 120.655 11.0763C118.814 11.0763 117.894 11.5558 117.894 12.5148C117.894 12.9463 118.054 13.27 118.373 13.4858C118.716 13.6776 119.281 13.8334 120.066 13.9533L121.833 14.169C123.674 14.4088 125 15.0082 125.81 15.9672C126.62 16.9022 127.025 18.2089 127.025 19.8871C127.025 24.0108 124.263 26.0727 118.741 26.0727Z" fill="black"/>
<path id="Vector_3" d="M100.47 22.2247C101.526 22.2247 102.287 21.9729 102.753 21.4695V17.8732L100.544 18.089C99.8076 18.1609 99.2676 18.3647 98.924 18.7003C98.6049 19.012 98.4454 19.5035 98.4454 20.1748C98.4454 21.5414 99.1203 22.2247 100.47 22.2247ZM98.3349 26.0727C96.5432 26.0727 95.1073 25.6291 94.0273 24.7421C92.9719 23.855 92.4442 22.5483 92.4442 20.8221C92.4442 18.9761 93.021 17.6334 94.1746 16.7943C95.3527 15.9312 97.0586 15.3558 99.2921 15.0681L102.753 14.5646V13.8094C102.753 12.8504 102.495 12.2151 101.98 11.9034C101.464 11.5917 100.495 11.4359 99.0712 11.4359C97.3531 11.4359 95.6841 11.6157 94.0642 11.9753V7.9475C95.9295 7.22825 98.3963 6.86862 101.464 6.86862C103.919 6.86862 105.784 7.31216 107.06 8.19924C108.361 9.08632 109.012 10.5368 109.012 12.5507V25.749H103.821L103.379 24.3105H103.195C102.336 25.4853 100.716 26.0727 98.3349 26.0727Z" fill="black"/>
<path id="Vector_4" d="M84.4009 26.0727C81.2592 26.0727 78.8783 25.2935 77.2584 23.7351C75.6385 22.1528 74.8285 19.8392 74.8285 16.7943V16.3628C74.8285 13.27 75.6998 10.9204 77.4425 9.31408C79.1852 7.68378 81.5905 6.86862 84.6586 6.86862C86.9903 6.86862 88.7575 7.1803 89.9602 7.80365V12.2271C88.6103 11.7236 87.2235 11.4718 85.7999 11.4718C84.4254 11.4718 83.3332 11.8435 82.5232 12.5867C81.7378 13.3059 81.3451 14.4208 81.3451 15.9312V16.5066C81.3451 18.2568 81.701 19.5275 82.4128 20.3187C83.1246 21.0859 84.2782 21.4695 85.8735 21.4695C87.1744 21.4695 88.5735 21.2057 90.0707 20.6783V24.814C88.7453 25.6531 86.8553 26.0727 84.4009 26.0727Z" fill="black"/>
<path id="Vector_5" d="M58.4678 31C56.9215 31 55.7065 30.8082 54.8229 30.4246V26.3968C55.7065 26.5406 56.3815 26.6126 56.8478 26.6126C58.5169 26.6126 59.5723 26.0611 60.0141 24.9583L60.3086 24.1671L53.2766 7.19272H59.83L63.4012 17.2263H63.4749L67.1934 7.19272H73.0841L65.7575 26.2529C65.1194 28.0511 64.2603 29.2858 63.1803 29.9571C62.1004 30.6524 60.5295 31 58.4678 31Z" fill="black"/>
<path id="Vector_6" d="M44.3962 25.7133V0H50.6919V25.7133H44.3962Z" fill="black"/>
<path id="Vector_7" d="M33.9696 25.7133V0H40.2653V25.7133H33.9696Z" fill="black"/>
<path id="Vector_8" d="M23.5061 5.10691V0.431763H29.8754V5.10691H23.5061ZM23.5429 25.7495V7.19275H29.8386V25.7495H23.5429Z" fill="black"/>
<path id="Vector_9" d="M6.7743 11.616H9.27785C11.4623 11.616 12.5545 10.633 12.5545 8.66707C12.5545 7.68409 12.2846 6.97683 11.7446 6.54528C11.2291 6.11372 10.4314 5.89795 9.35148 5.89795H6.7743V11.616ZM6.7743 21.3619H9.71965C12.0023 21.3619 13.1436 20.331 13.1436 18.2691C13.1436 16.2792 11.9409 15.2842 9.53557 15.2842H6.7743V21.3619ZM0 25.7493V1.58243H10.7137C16.359 1.58243 19.1816 3.6323 19.1816 7.73205C19.1816 10.5132 17.8071 12.2873 15.0581 13.0545V13.1624C18.5434 13.7618 20.2861 15.6678 20.2861 18.8805C20.2861 20.9663 19.5252 22.6326 18.0034 23.8793C16.5062 25.126 14.2236 25.7493 11.1555 25.7493H0Z" fill="black"/>
</g>
</svg>
