<svg width="122" height="33" viewBox="0 0 122 33" fill="none" xmlns="http://www.w3.org/2000/svg">
<path d="M6.89852 4.05945C8.6484 4.05945 10.0632 5.45292 10.0632 7.16823V10.822C11.0536 10.4782 12.1184 10.2807 13.2279 10.2807C18.4738 10.2807 22.7257 14.4574 22.7257 19.6106C22.7257 24.7639 18.4738 28.9406 13.2279 28.9406C7.98196 28.9406 3.7599 24.7895 3.73011 19.6582C3.73011 19.6436 3.73011 19.6253 3.73011 19.6106V7.17188C3.73011 5.45292 5.14863 4.06311 6.8948 4.06311M13.2316 22.7231C14.9815 22.7231 16.3963 21.3296 16.3963 19.6143C16.3963 17.899 14.9778 16.5055 13.2316 16.5055C11.4855 16.5055 10.0669 17.899 10.0669 19.6143C10.0669 21.3296 11.4855 22.7231 13.2316 22.7231ZM6.89852 0.950679C3.4062 0.950679 0.56543 3.74126 0.56543 7.17188V19.7789C0.662232 26.556 6.31771 32.0531 13.2316 32.0531C20.1455 32.0531 25.8978 26.4719 25.8978 19.6106C25.8978 12.7494 20.2163 7.16823 13.2316 7.16823C13.2316 3.7376 10.3908 0.947021 6.89852 0.947021V0.950679Z" fill="#FED404"/>
<path d="M6.90253 4.55957C8.38108 4.55976 9.56638 5.73417 9.56659 7.16797V11.5254L10.2307 11.2939C11.1722 10.9671 12.1782 10.7812 13.2316 10.7812H13.2355C18.2135 10.7814 22.2324 14.7419 22.2326 19.6104C22.2326 24.4785 18.1993 28.4403 13.2355 28.4404C8.27228 28.4404 4.26344 24.5051 4.23749 19.6582V7.16797C4.2377 5.73733 5.4242 4.55957 6.90253 4.55957ZM13.2316 16.0059C11.2178 16.0059 9.56668 17.6145 9.56659 19.6143C9.56659 21.6137 11.2137 23.2236 13.2316 23.2236C15.2455 23.2236 16.8967 21.614 16.8967 19.6143C16.8966 17.6145 15.2454 16.0059 13.2316 16.0059Z" fill="#231916" stroke="black"/>
<path fill-rule="evenodd" clip-rule="evenodd" d="M38.1519 14.3056C38.5139 14.0319 38.8769 13.8216 39.3047 13.6432C39.7057 13.4786 40.2237 13.4127 40.8419 13.4127C41.6104 13.4127 42.3288 13.5774 42.9805 13.8408C43.6153 14.1536 44.1834 14.5488 44.6679 15.0591C45.1358 15.5695 45.4866 16.1787 45.7707 16.8702C46.0046 17.5782 46.1549 18.352 46.1549 19.1423C46.1549 20.0973 46.0213 20.937 45.7372 21.6943C45.4532 22.4517 45.0689 23.0773 44.6011 23.5877C44.1166 24.0981 43.5652 24.4933 42.9303 24.7732C42.2954 25.0366 41.6438 25.1683 40.9588 25.1683C40.2738 25.1683 39.7391 25.0695 39.2713 24.9049C38.7868 24.7238 38.3524 24.4274 37.9347 24.0158C37.8679 24.2957 37.7509 24.5262 37.5504 24.6908C37.3499 24.8225 37.0325 24.9049 36.6148 24.9049C35.7126 24.9049 35.2781 24.4274 35.2781 23.5219L35.2781 10.2539C35.2781 9.34832 35.746 8.87085 36.6816 8.87085H36.7484C37.6674 8.87085 38.1519 9.34832 38.1519 10.2539L38.1519 14.3056ZM38.7534 21.9742C38.3357 21.4967 38.1352 20.9205 38.1352 20.2125H38.1519V18.5496C38.1519 18.2038 38.1853 17.8581 38.2856 17.5288C38.3691 17.216 38.5028 16.9196 38.7033 16.6562C38.887 16.4257 39.1209 16.2281 39.405 16.0635C39.689 15.9318 40.0065 15.8494 40.4074 15.8494C40.9254 15.8494 41.3765 15.9482 41.7441 16.1293C42.1116 16.3269 42.3957 16.5574 42.6296 16.8538C42.8301 17.1666 42.9972 17.5288 43.0974 17.9239C43.1642 18.3356 43.2311 18.7801 43.2311 19.2082C43.2311 19.7186 43.1642 20.1961 43.064 20.6077C42.947 21.0357 42.78 21.4144 42.5795 21.7108C42.3623 22.0236 42.0782 22.2706 41.7608 22.4352C41.4099 22.6163 41.0089 22.6986 40.5745 22.6986C39.7558 22.6986 39.1544 22.4681 38.7534 21.9742Z" fill="white"/>
<path d="M48.8282 24.8363C49.0621 25.0833 49.4129 25.1985 49.8473 25.1985C50.7663 25.1985 51.2341 24.7211 51.2341 23.8155V15.2869C51.2341 14.8589 51.1004 14.5131 50.8665 14.2662C50.6326 14.0192 50.2817 13.9039 49.8473 13.9039C49.4129 13.9039 49.0788 14.0357 48.8282 14.2662C48.5775 14.4967 48.4606 14.8589 48.4606 15.2869V23.8155C48.4606 24.2436 48.5942 24.6058 48.8282 24.8363Z" fill="white"/>
<path d="M54.2415 10.3476C54.2415 9.91952 54.3584 9.55731 54.6091 9.3268C54.843 9.0963 55.1938 8.96459 55.6282 8.96459C56.0626 8.96459 56.4135 9.07984 56.6474 9.3268C56.8813 9.55731 57.015 9.91952 57.015 10.3476V23.8155C57.015 24.2436 56.898 24.6058 56.6474 24.8363C56.4135 25.0668 56.0626 25.1985 55.6282 25.1985C55.1938 25.1985 54.843 25.0833 54.6091 24.8363C54.3751 24.6058 54.2415 24.2436 54.2415 23.8155V10.3476Z" fill="white"/>
<path d="M60.4234 9.3268C60.1728 9.55731 60.0558 9.91952 60.0558 10.3476V23.8155C60.0558 24.2436 60.1895 24.6058 60.4234 24.8363C60.6573 25.0833 61.0082 25.1985 61.4426 25.1985C61.877 25.1985 62.2278 25.0668 62.4617 24.8363C62.7123 24.6058 62.8293 24.2436 62.8293 23.8155V10.3476C62.8293 9.91952 62.6956 9.55731 62.4617 9.3268C62.2278 9.07984 61.877 8.96459 61.4426 8.96459C61.0082 8.96459 60.6573 9.0963 60.4234 9.3268Z" fill="white"/>
<path d="M68.287 24.4109L64.6447 15.4213C64.4442 14.9274 64.4609 14.4993 64.7115 14.1371C64.9287 13.8078 65.313 13.6267 65.8811 13.6267C66.2152 13.6267 66.4993 13.7255 66.7499 13.8901C66.9504 14.0877 67.1342 14.3676 67.2845 14.7134L69.6905 20.9863L72.1966 14.7134C72.3303 14.3511 72.5141 14.0877 72.7647 13.8901C72.9819 13.7255 73.2659 13.6267 73.6335 13.6267C74.1347 13.6267 74.519 13.8078 74.7529 14.1371C74.9701 14.4993 74.9868 14.9274 74.7863 15.4213L68.7214 30.0785C68.5543 30.4572 68.3873 30.7371 68.1534 30.9018C67.9194 31.0664 67.6354 31.1652 67.2845 31.1652C67.0005 31.1652 66.7666 31.0993 66.5995 30.9841C66.399 30.8688 66.2821 30.7042 66.1985 30.5231C66.0983 30.3255 66.0649 30.1279 66.0816 29.8974C66.0816 29.634 66.115 29.4035 66.2152 29.173L68.287 24.4109Z" fill="white"/>
<path d="M82.4822 22.8138C82.2984 22.8303 82.1481 22.8303 81.981 22.8303L81.9643 22.8797C81.4798 22.8797 81.0453 22.7974 80.6444 22.5998C80.2434 22.4516 79.8925 22.1882 79.6085 21.8754C79.3077 21.5461 79.0905 21.1839 78.9235 20.7229C78.7731 20.2948 78.6895 19.8008 78.6895 19.2411C78.6895 18.7636 78.7397 18.3026 78.9068 17.8745C79.0237 17.4629 79.2242 17.0842 79.5082 16.7714C79.7589 16.4421 80.1097 16.2116 80.5274 16.014C80.9284 15.8494 81.3795 15.7506 81.9476 15.7506C82.037 15.7506 82.1265 15.7545 82.2179 15.7585L82.2192 15.7586L82.2204 15.7586C82.316 15.7628 82.4136 15.7671 82.5156 15.7671L82.5161 15.7671C82.6997 15.8 82.8834 15.833 83.0837 15.8988C83.4346 16.014 83.7353 16.014 84.0026 15.9152C84.2365 15.8329 84.4537 15.6024 84.6208 15.2402C84.7545 14.8945 84.7545 14.5816 84.6375 14.2688C84.4872 13.9724 84.2031 13.7584 83.7687 13.6432C83.1672 13.5114 82.5658 13.4291 81.9476 13.4291C80.9952 13.4291 80.1431 13.5773 79.408 13.8572C78.6394 14.1536 78.0212 14.5652 77.52 15.0756C77.0021 15.6189 76.6011 16.2281 76.3337 16.936C76.0497 17.6605 75.9161 18.4343 75.9161 19.3069C75.9161 20.1795 76.033 20.9534 76.317 21.6613C76.5677 22.3858 76.9519 23.0279 77.4532 23.5383C77.9377 24.0487 78.5392 24.4603 79.2576 24.7566C79.9593 25.0201 80.778 25.1847 81.6301 25.1847C82.4822 25.1847 83.2508 25.0859 83.8857 24.9213C84.3201 24.806 84.5874 24.592 84.7545 24.3121C84.8881 23.9993 84.8881 23.6864 84.7545 23.3242C84.6041 22.962 84.4036 22.7315 84.1196 22.6492C83.8356 22.5998 83.4513 22.6163 83.0169 22.715C82.8164 22.7809 82.6493 22.8138 82.4822 22.8138Z" fill="white"/>
<path d="M93.5929 13.6304C93.9605 13.6633 94.2111 13.8115 94.4116 14.0914C94.5787 14.3878 94.6288 14.7171 94.5787 15.1122C94.5452 15.3262 94.4784 15.5073 94.3949 15.6226C94.2946 15.7543 94.1944 15.8531 94.0774 15.919C93.9605 16.0013 93.8101 16.0507 93.6931 16.0836C93.5595 16.1165 93.4258 16.1165 93.3089 16.0836C93.2253 16.0836 93.1418 16.0671 93.075 16.0507H92.7909C92.1059 16.0507 91.5545 16.2482 91.0867 16.6269C90.6022 17.0221 90.2847 17.5819 90.101 18.3228V23.7396C90.101 24.6451 89.6164 25.1226 88.6975 25.1226H88.6808C87.7452 25.1226 87.2773 24.6451 87.2773 23.7396V15.2275C87.2773 14.3219 87.7452 13.8444 88.6808 13.8444H88.6975C89.6164 13.8444 90.101 14.1737 90.101 14.8159C90.5187 14.4042 90.9698 14.0914 91.4209 13.8938C91.8553 13.7127 92.3899 13.6139 93.0081 13.6139H93.2754C93.3236 13.6139 93.3718 13.6178 93.4219 13.6217H93.4222C93.4762 13.626 93.5323 13.6304 93.5929 13.6304Z" fill="white"/>
<path fill-rule="evenodd" clip-rule="evenodd" d="M101.634 22.6986C101.317 22.748 100.982 22.7645 100.648 22.7645C99.8629 22.7645 99.2447 22.5834 98.7602 22.1882C98.2757 21.826 97.9749 21.1345 97.8747 20.1466H103.672C104.14 20.1466 104.491 20.0314 104.758 19.7679C104.992 19.521 105.109 19.1752 105.092 18.6978C105.009 16.9855 104.575 15.6848 103.773 14.7628C102.971 13.8572 101.751 13.3798 100.147 13.3798C99.2949 13.3798 98.543 13.5444 97.9248 13.8407C97.2732 14.1536 96.7386 14.5981 96.3376 15.1085C95.8865 15.6683 95.569 16.2775 95.3685 16.969C95.1513 17.677 95.0511 18.4508 95.0511 19.2411C95.0511 20.1466 95.168 20.9863 95.4521 21.6943C95.7027 22.4352 96.087 23.0444 96.5715 23.5383C97.056 24.0487 97.6074 24.4438 98.2924 24.7237C98.9607 24.9872 99.6791 25.1189 100.481 25.1189C101.083 25.1189 101.651 25.086 102.169 25.0036C102.67 24.9048 103.204 24.7237 103.773 24.4932C104.174 24.2957 104.441 24.0322 104.558 23.7359C104.641 23.456 104.608 23.1432 104.424 22.7809C104.224 22.4352 103.99 22.2376 103.706 22.2047C103.388 22.1553 103.021 22.2376 102.603 22.4187C102.235 22.5834 101.918 22.6657 101.634 22.6986ZM99.1445 15.9153C99.3768 15.8172 99.7244 15.7515 100.138 15.7506C100.519 15.7515 100.834 15.8172 101.099 15.9153C101.333 16.0305 101.55 16.1622 101.717 16.3434C101.885 16.5409 102.002 16.7385 102.102 16.969C102.185 17.2324 102.252 17.4794 102.286 17.7593H97.9248C97.9582 17.4794 98.0418 17.2324 98.142 16.969C98.2256 16.7385 98.3425 16.5409 98.5096 16.3434C98.66 16.1787 98.8605 16.0305 99.1445 15.9153Z" fill="white"/>
<path d="M106.546 15.8303C106.379 15.2211 106.429 14.7436 106.68 14.3814C106.914 14.0686 107.298 13.8875 107.816 13.8875C108.518 13.8875 108.952 14.2991 109.136 15.1058L110.506 21.2141L112.177 15.0729C112.377 14.2826 112.895 13.8875 113.747 13.8875H114.131C114.95 13.8875 115.468 14.2826 115.702 15.0729L117.373 21.2306L118.759 15.1058C118.927 14.2991 119.378 13.8875 120.096 13.8875C120.564 13.8875 120.915 14.0521 121.199 14.3485C121.466 14.6613 121.5 15.1552 121.332 15.8303L119.261 23.9966C119.06 24.7869 118.542 25.1821 117.724 25.1821H117.005C116.17 25.1821 115.635 24.7869 115.435 23.9966L113.948 18.4646L112.461 23.9966C112.243 24.7869 111.725 25.1821 110.89 25.1821H110.172C109.336 25.1821 108.835 24.7869 108.635 23.9966L106.546 15.8303Z" fill="white"/>
<path d="M49.8555 11.6939C50.6227 11.6939 51.2446 11.0829 51.2446 10.3292C51.2446 9.57556 50.6227 8.96459 49.8555 8.96459C49.0882 8.96459 48.4663 9.57556 48.4663 10.3292C48.4663 11.0829 49.0882 11.6939 49.8555 11.6939Z" fill="white"/>
</svg>
