<svg width="36" height="36" viewBox="0 0 36 36" fill="none" xmlns="http://www.w3.org/2000/svg">
<rect width="36" height="36" rx="18" fill="white"/>
<path d="M14.8751 21.125L21.1251 14.875M12.6626 16.2625L11.3376 17.5875C10.3994 18.5257 9.87231 19.7982 9.87231 21.125C9.87231 22.4518 10.3994 23.7243 11.3376 24.6625C12.2758 25.6007 13.5483 26.1278 14.8751 26.1278C16.2019 26.1278 17.4744 25.6007 18.4126 24.6625L19.7376 23.3375M23.3376 19.7375L24.6626 18.4125C25.6008 17.4743 26.1279 16.2018 26.1279 14.875C26.1279 13.5482 25.6008 12.2757 24.6626 11.3375C23.7244 10.3993 22.4519 9.87222 21.1251 9.87222C19.7983 9.87222 18.5258 10.3993 17.5876 11.3375L16.2626 12.6625" stroke="#231F20" stroke-width="1.5" stroke-linecap="round" stroke-linejoin="round"/>
</svg>
