<svg width="36" height="36" viewBox="0 0 36 36" fill="none" xmlns="http://www.w3.org/2000/svg">
<rect width="36" height="36" rx="18" fill="#231F20"/>
<path d="M18.0019 13.9606C15.7304 13.9606 13.8983 15.7641 13.8983 18C13.8983 20.2359 15.7304 22.0395 18.0019 22.0395C20.2733 22.0395 22.1054 20.2359 22.1054 18C22.1054 15.7641 20.2733 13.9606 18.0019 13.9606ZM18.0019 20.6262C16.534 20.6262 15.334 19.4484 15.334 18C15.334 16.5516 16.5304 15.3738 18.0019 15.3738C19.4733 15.3738 20.6697 16.5516 20.6697 18C20.6697 19.4484 19.4697 20.6262 18.0019 20.6262ZM23.2304 13.7953C23.2304 14.3192 22.8018 14.7375 22.2733 14.7375C21.7411 14.7375 21.3161 14.3156 21.3161 13.7953C21.3161 13.275 21.7447 12.8531 22.2733 12.8531C22.8018 12.8531 23.2304 13.275 23.2304 13.7953ZM25.9483 14.7516C25.8876 13.4895 25.5947 12.3715 24.6554 11.4504C23.7197 10.5293 22.584 10.241 21.3018 10.1777C19.9804 10.1039 16.0197 10.1039 14.6983 10.1777C13.4197 10.2375 12.284 10.5258 11.3447 11.4469C10.4054 12.368 10.1161 13.4859 10.0519 14.7481C9.97686 16.0488 9.97686 19.9477 10.0519 21.2484C10.1126 22.5106 10.4054 23.6285 11.3447 24.5496C12.284 25.4707 13.4161 25.759 14.6983 25.8223C16.0197 25.8961 19.9804 25.8961 21.3018 25.8223C22.584 25.7625 23.7197 25.4742 24.6554 24.5496C25.5911 23.6285 25.884 22.5106 25.9483 21.2484C26.0233 19.9477 26.0233 16.0524 25.9483 14.7516ZM24.2411 22.6441C23.9626 23.3332 23.4233 23.8641 22.7197 24.1418C21.6661 24.5531 19.1661 24.4582 18.0019 24.4582C16.8376 24.4582 14.334 24.5496 13.284 24.1418C12.584 23.8676 12.0447 23.3367 11.7626 22.6441C11.3447 21.607 11.4411 19.1461 11.4411 18C11.4411 16.8539 11.3483 14.3895 11.7626 13.3559C12.0411 12.6668 12.5804 12.1359 13.284 11.8582C14.3376 11.4469 16.8376 11.5418 18.0019 11.5418C19.1661 11.5418 21.6697 11.4504 22.7197 11.8582C23.4197 12.1324 23.959 12.6633 24.2411 13.3559C24.659 14.393 24.5626 16.8539 24.5626 18C24.5626 19.1461 24.659 21.6106 24.2411 22.6441Z" fill="white"/>
</svg>
