<svg width="36" height="36" viewBox="0 0 36 36" fill="none" xmlns="http://www.w3.org/2000/svg">
<rect width="36" height="36" rx="18" fill="#231F20"/>
<path d="M27 12.6817C26.326 12.9661 25.611 13.1529 24.879 13.2356C25.6415 12.8002 26.227 12.1108 26.5027 11.2892C25.7778 11.6991 24.9847 11.9878 24.1577 12.143C23.484 11.4593 22.5243 11.032 21.4621 11.032C19.4226 11.032 17.7691 12.6072 17.7691 14.55C17.7691 14.8258 17.8018 15.0943 17.8647 15.3519C14.7956 15.2051 12.0745 13.8045 10.253 11.676C9.93523 12.1956 9.75312 12.8 9.75312 13.4446C9.75312 14.6653 10.4051 15.742 11.396 16.373C10.8095 16.3555 10.236 16.2046 9.72323 15.9329C9.72302 15.9476 9.72302 15.9624 9.72302 15.9772C9.72302 17.6817 10.996 19.1037 12.6853 19.4269C12.1415 19.5678 11.5711 19.5884 11.0176 19.4872C11.4875 20.8849 12.8514 21.902 14.4673 21.9305C13.2034 22.8741 11.6111 23.4365 9.88095 23.4365C9.58282 23.4365 9.28891 23.4199 9 23.3874C10.6343 24.3856 12.5754 24.968 14.6609 24.968C21.4535 24.968 25.1679 19.6071 25.1679 14.958C25.1679 14.8055 25.1644 14.6537 25.1573 14.5029C25.8802 14.005 26.5042 13.3882 27 12.6817Z" fill="white"/>
</svg>
