<svg width="20" height="20" viewBox="0 0 20 20" fill="none" xmlns="http://www.w3.org/2000/svg">
<g id="icon_+">
<path id="Rectangle 34624163" d="M9.99805 3C10.2742 3 10.498 3.22386 10.498 3.5L10.498 16.5C10.498 16.7761 10.2742 17 9.99805 17V17C9.7219 17 9.49805 16.7761 9.49805 16.5L9.49805 3.5C9.49805 3.22386 9.7219 3 9.99805 3V3Z" fill="#231F20"/>
<path id="Rectangle 34624164" d="M17 10.0007C17 10.2769 16.7761 10.5007 16.5 10.5007L3.5 10.5007C3.22386 10.5007 3 10.2769 3 10.0007V10.0007C3 9.72459 3.22386 9.50073 3.5 9.50073L16.5 9.50073C16.7761 9.50073 17 9.72459 17 10.0007V10.0007Z" fill="#231F20"/>
</g>
</svg>
