<svg width="36" height="36" viewBox="0 0 36 36" fill="none" xmlns="http://www.w3.org/2000/svg">
<rect width="36" height="36" rx="18" fill="#231F20"/>
<path d="M13.6315 25.5V15.3795H10.2012V25.5H13.6315ZM11.9168 13.9969C13.113 13.9969 13.8575 13.2198 13.8575 12.2486C13.8353 11.2556 13.113 10.5 11.9395 10.5C10.7661 10.5 9.99878 11.2556 9.99878 12.2486C9.99878 13.2198 10.7432 13.9969 11.8944 13.9969H11.9167H11.9168ZM15.5301 25.5H18.9604V19.8482C18.9604 19.5458 18.9827 19.2436 19.0733 19.0274C19.3213 18.423 19.8857 17.7971 20.8333 17.7971C22.0746 17.7971 22.5712 18.7252 22.5712 20.0857V25.4999H26.0013V19.6969C26.0013 16.5883 24.3089 15.1419 22.052 15.1419C20.2015 15.1419 19.389 16.1563 18.9376 16.8471H18.9605V15.3793H15.5302C15.5752 16.329 15.5302 25.4998 15.5302 25.4998L15.5301 25.5Z" fill="white"/>
</svg>
