<svg width="156" height="32" viewBox="0 0 156 32" fill="none" xmlns="http://www.w3.org/2000/svg">
<g id="kuanta">
<path id="Union" fill-rule="evenodd" clip-rule="evenodd" d="M122.855 0H116.472V9.02901L111.376 9.044V14.0366L116.472 14.0179V31.9217H122.855V13.9945L127.872 13.9761L131.912 8.98361L122.855 9.01024V0ZM-0.382812 1.61846H6.00026V16.75L18.1675 1.61855H24.5839L12.4166 16.75L12.4165 16.75L24.6646 31.8814H18.2483L6.00026 16.7501V31.8004H-0.382812V1.61846ZM92.2527 9.96414C91.6437 10.3453 91.1109 10.8027 90.7303 11.2601L90.2355 8.935H85.1354V31.8813H91.149V18.3497C91.4534 16.6345 92.1766 15.2623 93.2803 14.2713C94.346 13.3184 95.602 12.8229 97.0483 12.8229C98.723 12.8229 100.017 13.3184 101.007 14.3094C101.958 15.3385 102.453 16.9775 102.453 19.1883V31.8813H108.466V17.13C108.466 15.7959 108.2 14.5762 107.705 13.4327C107.172 12.3655 106.449 11.4126 105.536 10.6121C104.622 9.84979 103.557 9.27804 102.339 8.82065C101.121 8.40137 99.7887 8.17267 98.4185 8.17267C97.7334 8.17267 97.0103 8.2489 96.2871 8.36325C95.5259 8.51572 94.8408 8.74442 94.1557 8.97311C93.4706 9.27804 92.8236 9.58297 92.2527 9.96414ZM42.5115 30.1276C43.0824 29.7465 43.5772 29.2891 43.9959 28.8317L44.5287 31.9191H49.6288V8.935H43.6153V21.7421C43.2727 23.4954 42.5876 24.8295 41.5219 25.7824C40.4182 26.7734 39.1622 27.2689 37.7159 27.2689C36.0412 27.2689 34.7091 26.7734 33.7576 25.7443C32.768 24.7532 32.3113 23.1524 32.3113 20.9035V8.935H26.2977V22.9618C26.2977 24.334 26.5642 25.5537 27.097 26.6209C27.5918 27.7263 28.3149 28.6792 29.2284 29.4797C30.1418 30.242 31.2075 30.8137 32.4255 31.2711C33.6434 31.6904 34.9375 31.9191 36.3457 31.9191C37.0308 31.9191 37.7159 31.8429 38.4771 31.7285C39.1622 31.5761 39.8853 31.3474 40.5704 31.1187C41.2555 30.8137 41.9025 30.5088 42.5115 30.1276ZM74.3786 9.01589H79.631V31.8094H74.5309L73.8077 28.3027C73.351 28.8745 72.7801 29.4081 72.1331 29.9036C71.448 30.361 70.7629 30.7422 70.0017 31.0852C69.2024 31.3901 68.4031 31.6188 67.5658 31.8094C66.7285 31.9619 65.8911 32 65.0919 32C63.5314 31.9619 62.0851 31.657 60.7149 31.0471C59.3067 30.4372 58.0887 29.5987 57.0611 28.5695C55.9954 27.5023 55.1581 26.2826 54.5491 24.8341C53.9401 23.4238 53.6357 21.8611 53.6357 20.184C53.6357 18.4687 53.9401 16.8678 54.5872 15.3813C55.1961 13.9329 56.0715 12.675 57.1372 11.6078C58.2029 10.5787 59.4209 9.7401 60.791 9.13024C62.1612 8.55849 63.5694 8.25356 65.0538 8.25356C66.8807 8.25356 68.5173 8.55849 70.0397 9.16835C71.5241 9.77821 72.742 10.6549 73.6935 11.7603L74.3786 9.01589ZM66.2717 27.3498C67.1852 27.3498 68.0225 27.1592 68.8599 26.8543C69.6591 26.5494 70.3823 26.0539 70.9912 25.4059C71.5621 24.796 72.0189 24.0718 72.3995 23.157C72.704 22.2804 72.8943 21.2893 72.8943 20.184C72.8943 19.0405 72.704 18.0494 72.3995 17.1347C72.0189 16.258 71.5621 15.4957 70.9912 14.8477C70.3823 14.2378 69.6591 13.7804 68.8599 13.4374C68.0225 13.1324 67.1852 12.9419 66.2717 12.9419C65.3583 12.9419 64.4829 13.1324 63.6836 13.4374C62.8463 13.7804 62.1612 14.2378 61.5903 14.8477C60.9813 15.4957 60.4865 16.258 60.1821 17.1347C59.8015 18.0494 59.6492 19.0405 59.6492 20.184C59.6492 21.2893 59.8015 22.2804 60.1821 23.157C60.4865 24.0718 60.9813 24.796 61.5903 25.4059C62.1612 26.0539 62.8463 26.5494 63.6836 26.8543C64.4829 27.1592 65.3583 27.3498 66.2717 27.3498ZM155.617 9.01589H150.365L149.68 11.7603C148.728 10.6549 147.51 9.77821 146.026 9.16835C144.504 8.55849 142.867 8.25356 141.04 8.25356C139.556 8.25356 138.147 8.55849 136.777 9.13024C135.407 9.7401 134.189 10.5787 133.123 11.6078C132.058 12.675 131.182 13.9329 130.573 15.3813C129.926 16.8678 129.622 18.4687 129.622 20.184C129.622 21.8611 129.926 23.4238 130.535 24.8341C131.144 26.2826 131.982 27.5023 133.047 28.5695C134.075 29.5987 135.293 30.4372 136.701 31.0471C138.071 31.657 139.518 31.9619 141.078 32C141.877 32 142.715 31.9619 143.552 31.8094C144.389 31.6188 145.189 31.3901 145.988 31.0852C146.749 30.7422 147.434 30.361 148.119 29.9036C148.766 29.4081 149.337 28.8745 149.794 28.3027L150.517 31.8094H155.617V9.01589ZM144.846 26.8543C144.009 27.1592 143.171 27.3498 142.258 27.3498C141.345 27.3498 140.469 27.1592 139.67 26.8543C138.833 26.5494 138.147 26.0539 137.577 25.4059C136.968 24.796 136.473 24.0718 136.168 23.157C135.788 22.2804 135.635 21.2893 135.635 20.184C135.635 19.0405 135.788 18.0494 136.168 17.1347C136.473 16.258 136.968 15.4957 137.577 14.8477C138.147 14.2378 138.833 13.7804 139.67 13.4374C140.469 13.1324 141.345 12.9419 142.258 12.9419C143.171 12.9419 144.009 13.1324 144.846 13.4374C145.645 13.7804 146.368 14.2378 146.977 14.8477C147.548 15.4957 148.005 16.258 148.386 17.1347C148.69 18.0494 148.88 19.0405 148.88 20.184C148.88 21.2893 148.69 22.2804 148.386 23.157C148.005 24.0718 147.548 24.796 146.977 25.4059C146.368 26.0539 145.645 26.5494 144.846 26.8543Z" fill="#4A3BFF"/>
</g>
</svg>
