<svg width="26" height="33" viewBox="0 0 26 33" fill="none" xmlns="http://www.w3.org/2000/svg">
<g id="Group 1597881586">
<path id="Vector" d="M6.89852 4.05945C8.6484 4.05945 10.0632 5.45292 10.0632 7.16823V10.822C11.0536 10.4782 12.1184 10.2807 13.2279 10.2807C18.4738 10.2807 22.7257 14.4574 22.7257 19.6106C22.7257 24.7639 18.4738 28.9406 13.2279 28.9406C7.98196 28.9406 3.7599 24.7895 3.73011 19.6582C3.73011 19.6436 3.73011 19.6253 3.73011 19.6106V7.17188C3.73011 5.45292 5.14863 4.06311 6.8948 4.06311M13.2316 22.7231C14.9815 22.7231 16.3963 21.3296 16.3963 19.6143C16.3963 17.899 14.9778 16.5055 13.2316 16.5055C11.4855 16.5055 10.0669 17.899 10.0669 19.6143C10.0669 21.3296 11.4855 22.7231 13.2316 22.7231ZM6.89852 0.950679C3.4062 0.950679 0.56543 3.74126 0.56543 7.17188V19.7789C0.662232 26.556 6.31771 32.0531 13.2316 32.0531C20.1455 32.0531 25.8978 26.4719 25.8978 19.6106C25.8978 12.7494 20.2163 7.16823 13.2316 7.16823C13.2316 3.7376 10.3908 0.947021 6.89852 0.947021V0.950679Z" fill="#FED404"/>
<path id="Vector_2" d="M6.90253 4.55957C8.38108 4.55976 9.56638 5.73417 9.56659 7.16797V11.5254L10.2307 11.2939C11.1722 10.9671 12.1782 10.7812 13.2316 10.7812H13.2355C18.2135 10.7814 22.2324 14.7419 22.2326 19.6104C22.2326 24.4785 18.1993 28.4403 13.2355 28.4404C8.27228 28.4404 4.26344 24.5051 4.23749 19.6582V7.16797C4.2377 5.73733 5.4242 4.55957 6.90253 4.55957ZM13.2316 16.0059C11.2178 16.0059 9.56668 17.6145 9.56659 19.6143C9.56659 21.6137 11.2137 23.2236 13.2316 23.2236C15.2455 23.2236 16.8967 21.614 16.8967 19.6143C16.8966 17.6145 15.2454 16.0059 13.2316 16.0059Z" fill="#231916" stroke="black"/>
</g>
</svg>
