<svg width="19" height="23" viewBox="0 0 19 23" fill="none" xmlns="http://www.w3.org/2000/svg">
<g id="Group 1597881586">
<path id="Vector" d="M4.66686 2.96062C5.90671 2.96062 6.90913 3.94793 6.90913 5.16327V7.75204C7.61083 7.50845 8.36529 7.36852 9.1514 7.36852C12.8683 7.36852 15.8808 10.3279 15.8808 13.9791C15.8808 17.6303 12.8683 20.5896 9.1514 20.5896C5.43451 20.5896 2.44306 17.6484 2.42196 14.0128C2.42196 14.0024 2.42196 13.9894 2.42196 13.9791V5.16586C2.42196 3.94793 3.42702 2.96321 4.66422 2.96321M9.15404 16.1843C10.3939 16.1843 11.3963 15.197 11.3963 13.9817C11.3963 12.7663 10.3912 11.779 9.15404 11.779C7.91683 11.779 6.91177 12.7663 6.91177 13.9817C6.91177 15.197 7.91683 16.1843 9.15404 16.1843ZM4.66686 0.757962C2.19245 0.757962 0.179688 2.73517 0.179688 5.16586V14.0983C0.248275 18.9001 4.25534 22.7949 9.15404 22.7949C14.0527 22.7949 18.1284 18.8405 18.1284 13.9791C18.1284 9.11769 14.1029 5.16327 9.15404 5.16327C9.15404 2.73258 7.14127 0.755371 4.66686 0.755371V0.757962Z" fill="#FED404"/>
<path id="Vector_2" d="M4.66895 3.31506C5.71675 3.31506 6.55664 4.14761 6.55664 5.1637V8.24963L7.02734 8.08655C7.69438 7.85499 8.40704 7.72232 9.15332 7.72229H9.15625C12.6834 7.72232 15.5312 10.5295 15.5312 13.9791C15.5312 17.4284 12.6732 20.235 9.15625 20.235C5.74887 20.235 2.97667 17.6173 2.79102 14.3307L2.78125 14.0114V5.1637C2.78125 4.14996 3.62145 3.31511 4.66895 3.31506ZM9.15332 11.4244C7.72655 11.4246 6.55664 12.5652 6.55664 13.9821C6.55688 15.3984 7.72379 16.5386 9.15332 16.5387C10.5801 16.5387 11.7498 15.3988 11.75 13.9821C11.75 12.5651 10.5802 11.4244 9.15332 11.4244Z" fill="#231916" stroke="black" stroke-width="0.708529"/>
</g>
</svg>
