<svg width="138" height="31" viewBox="0 0 138 31" fill="none" xmlns="http://www.w3.org/2000/svg">
<g id="Group 1597881593">
<g id="Union">
<path d="M100.626 0H109.247V2.81863H106.371V5.63727H109.247V11.2745H106.371V31H100.626V11.2745H97.7506V5.63727H100.626V0Z" fill="#8F6AFF"/>
<path fill-rule="evenodd" clip-rule="evenodd" d="M110.933 4.15604L112.966 6.14912L114.999 8.14303L119.066 4.15653L117.033 2.16346L117.027 2.16921L114.996 0.178028L112.969 2.1657L112.966 2.16296L110.933 4.15604Z" fill="#8F6AFF"/>
<path d="M112.122 11.2745H117.873V31H112.122V11.2745Z" fill="#8F6AFF"/>
<path d="M135.125 8.4559V11.2745H138V31H132.249V14.0932H126.499V31H120.748V11.2745H123.623V8.4559H135.125Z" fill="#8F6AFF"/>
</g>
<g id="Union_2">
<path d="M24.6527 4.14488L26.6859 2.15181L26.6887 2.15454L28.7163 0.16687L30.7475 2.15805L30.7534 2.1523L32.7866 4.14538L28.7194 8.13188L24.6527 4.14488Z" fill="#74CDAB"/>
<path d="M0 11.2745H2.87532V8.4559H20.1272V11.2745H23.0025V31H17.2519V14.0932H14.3766V31H8.62595V14.0932H5.75063V31H0V11.2745Z" fill="#74CDAB"/>
<path d="M25.8728 11.2745H31.6234V31H25.8728V11.2745Z" fill="#74CDAB"/>
<path d="M34.4987 28.1814V11.2745H37.374V8.4559H51.7506V11.2745H54.626V16.9118H48.8753V14.0932H40.2494V25.3627H48.8753V22.5441H54.626V28.1814H51.7506V31H37.374V28.1814H34.4987Z" fill="#74CDAB"/>
<path fill-rule="evenodd" clip-rule="evenodd" d="M74.7481 11.2745H77.6234V8.4559H92V11.2745H94.8753V28.1814H92V31H77.6234V28.1814H74.7481V11.2745ZM89.1247 14.0932H80.4987V25.3627H89.1247V14.0932Z" fill="#74CDAB"/>
<path d="M60.3766 11.2745V8.4559H71.8728V14.0932H63.2519V31H57.5013V11.2745H60.3766Z" fill="#74CDAB"/>
</g>
</g>
</svg>
