<svg width="62" height="17" viewBox="0 0 62 17" fill="none" xmlns="http://www.w3.org/2000/svg">
<rect width="62" height="17" fill="#585858"/>
<g id="mid(1440)-design_News_list" clip-path="url(#clip0_1176_5979)">
<rect width="1920" height="3306" transform="translate(-295 -48)" fill="#F4F4F8"/>
<g id="Frame 1597881578">
<rect width="1440" height="100" transform="translate(-55 -48)" fill="url(#paint0_linear_1176_5979)"/>
<g id="header">
<g id="Logo">
<g id="logo">
<g id="Group 1597881569">
<g id="Component 1">
<g id="Union">
<path fill-rule="evenodd" clip-rule="evenodd" d="M2.81153 4.22053C3.06803 4.02661 3.32522 3.8776 3.62835 3.75122C3.91246 3.63457 4.27943 3.5879 4.71744 3.5879C5.26198 3.5879 5.77102 3.70456 6.2327 3.8912C6.68254 4.11285 7.08503 4.39283 7.42833 4.75446C7.75979 5.11609 8.00839 5.54772 8.20964 6.03767C8.37537 6.53928 8.48191 7.08757 8.48191 7.64751C8.48191 8.3241 8.38721 8.91905 8.18596 9.45567C7.98471 9.99227 7.71244 10.4356 7.38098 10.7972C7.03768 11.1588 6.64702 11.4388 6.19718 11.6371C5.74734 11.8238 5.28566 11.9171 4.8003 11.9171C4.31495 11.9171 3.93613 11.8471 3.60467 11.7304C3.26137 11.6021 2.95358 11.3921 2.65763 11.1005C2.61028 11.2988 2.52742 11.4621 2.38536 11.5788C2.2433 11.6721 2.01839 11.7304 1.72244 11.7304C1.08318 11.7304 0.775399 11.3921 0.775399 10.7505L0.775391 1.34978C0.775391 0.708172 1.10685 0.369873 1.76978 0.369873H1.81713C2.46822 0.369873 2.81152 0.708172 2.81152 1.34978L2.81153 4.22053ZM3.2377 9.65398C2.94174 9.31567 2.79969 8.90738 2.79969 8.40576H2.81153V7.22755C2.81153 6.98256 2.8352 6.73759 2.90623 6.50429C2.96542 6.28264 3.06012 6.07266 3.20218 5.88601C3.3324 5.7227 3.49813 5.58271 3.69938 5.46605C3.90062 5.37273 4.12554 5.3144 4.40965 5.3144C4.77663 5.3144 5.09625 5.3844 5.35669 5.51271C5.61712 5.6527 5.81837 5.81602 5.9841 6.026C6.12615 6.24764 6.24453 6.50429 6.31556 6.78425C6.36292 7.0759 6.41026 7.39087 6.41026 7.69417C6.41026 8.0558 6.36292 8.3941 6.29189 8.68573C6.20902 8.98903 6.09064 9.25734 5.94858 9.46732C5.79469 9.68897 5.59345 9.86396 5.36853 9.98062C5.11993 10.1089 4.83582 10.1673 4.52803 10.1673C3.94797 10.1673 3.52181 10.0039 3.2377 9.65398Z" fill="#231916"/>
<path d="M10.376 11.6819C10.5417 11.8568 10.7903 11.9385 11.0981 11.9385C11.7492 11.9385 12.0806 11.6002 12.0806 10.9586V4.91586C12.0806 4.61256 11.9859 4.36759 11.8202 4.1926C11.6545 4.01761 11.4059 3.93596 11.0981 3.93596C10.7903 3.93596 10.5535 4.02928 10.376 4.1926C10.1984 4.35592 10.1155 4.61256 10.1155 4.91586V10.9586C10.1155 11.2619 10.2102 11.5185 10.376 11.6819Z" fill="#231916"/>
<path d="M14.2115 1.4162C14.2115 1.11289 14.2943 0.856249 14.4719 0.69293C14.6376 0.529611 14.8862 0.436291 15.194 0.436291C15.5018 0.436291 15.7504 0.51795 15.9161 0.69293C16.0819 0.856249 16.1766 1.11289 16.1766 1.4162V10.9586C16.1766 11.2619 16.0937 11.5185 15.9161 11.6818C15.7504 11.8452 15.5018 11.9385 15.194 11.9385C14.8862 11.9385 14.6376 11.8568 14.4719 11.6818C14.3062 11.5185 14.2115 11.2619 14.2115 10.9586V1.4162Z" fill="#231916"/>
<path d="M18.5915 0.69293C18.4139 0.856249 18.3311 1.11289 18.3311 1.4162V10.9586C18.3311 11.2619 18.4258 11.5185 18.5915 11.6818C18.7572 11.8568 19.0058 11.9385 19.3136 11.9385C19.6214 11.9385 19.87 11.8452 20.0357 11.6818C20.2133 11.5185 20.2962 11.2619 20.2962 10.9586V1.4162C20.2962 1.11289 20.2015 0.856249 20.0357 0.69293C19.87 0.51795 19.6214 0.436291 19.3136 0.436291C19.0058 0.436291 18.7572 0.529611 18.5915 0.69293Z" fill="#231916"/>
<path d="M24.1631 11.3804L21.5824 5.01108C21.4404 4.66111 21.4522 4.35781 21.6298 4.10117C21.7837 3.86787 22.056 3.73954 22.4585 3.73954C22.6952 3.73954 22.8965 3.80954 23.074 3.92618C23.2161 4.06618 23.3463 4.26449 23.4528 4.50946L25.1575 8.95403L26.9332 4.50946C27.0279 4.25282 27.1581 4.06618 27.3357 3.92618C27.4896 3.80954 27.6908 3.73954 27.9513 3.73954C28.3064 3.73954 28.5787 3.86787 28.7444 4.10117C28.8983 4.35781 28.9101 4.66111 28.7681 5.01108L24.4709 15.3961C24.3525 15.6644 24.2341 15.8627 24.0684 15.9794C23.9027 16.0961 23.7014 16.166 23.4528 16.166C23.2516 16.166 23.0859 16.1194 22.9675 16.0377C22.8254 15.9561 22.7426 15.8394 22.6834 15.7111C22.6123 15.5711 22.5887 15.4311 22.6005 15.2678C22.6005 15.0812 22.6242 14.9178 22.6952 14.7545L24.1631 11.3804Z" fill="#231916"/>
<path d="M34.2208 10.2489C34.0906 10.2605 33.9841 10.2605 33.8657 10.2605L33.8539 10.2955C33.5105 10.2955 33.2028 10.2372 32.9187 10.0972C32.6345 9.99224 32.3859 9.80558 32.1847 9.58395C31.9716 9.35063 31.8177 9.09399 31.6993 8.76735C31.5928 8.46405 31.5336 8.11408 31.5336 7.71746C31.5336 7.37915 31.5691 7.05253 31.6875 6.74921C31.7704 6.45758 31.9124 6.18927 32.1137 5.96763C32.2912 5.73432 32.5398 5.57101 32.8358 5.43102C33.1199 5.31437 33.4395 5.24437 33.842 5.24437C33.9054 5.24437 33.9688 5.24713 34.0336 5.24996L34.0345 5.25001L34.0354 5.25006C34.103 5.25302 34.1722 5.25604 34.2445 5.25604L34.2448 5.25608C34.3749 5.27941 34.5051 5.30273 34.647 5.34936C34.8956 5.43102 35.1087 5.43102 35.2981 5.36103C35.4638 5.3027 35.6177 5.13938 35.7361 4.88274C35.8308 4.63777 35.8308 4.41612 35.7479 4.19447C35.6414 3.98449 35.4401 3.83284 35.1323 3.75119C34.7062 3.65786 34.28 3.59953 33.842 3.59953C33.1672 3.59953 32.5635 3.70452 32.0426 3.90284C31.4981 4.11282 31.0601 4.40445 30.705 4.76608C30.338 5.15105 30.0539 5.58267 29.8645 6.08428C29.6632 6.59756 29.5685 7.14585 29.5685 7.76412C29.5685 8.38239 29.6514 8.93067 29.8526 9.43228C30.0302 9.94558 30.3025 10.4005 30.6576 10.7622C31.0009 11.1238 31.4271 11.4154 31.9361 11.6254C32.4333 11.8121 33.0134 11.9287 33.6171 11.9287C34.2208 11.9287 34.7654 11.8587 35.2152 11.7421C35.523 11.6604 35.7124 11.5088 35.8308 11.3104C35.9255 11.0888 35.9255 10.8671 35.8308 10.6105C35.7242 10.3539 35.5822 10.1905 35.381 10.1322C35.1797 10.0972 34.9074 10.1089 34.5996 10.1789C34.4576 10.2255 34.3392 10.2489 34.2208 10.2489Z" fill="#231916"/>
<path d="M42.0931 3.74216C42.3535 3.76548 42.5311 3.87047 42.6731 4.0688C42.7915 4.27878 42.827 4.51208 42.7915 4.79206C42.7678 4.94371 42.7205 5.07202 42.6613 5.15368C42.5902 5.24701 42.5192 5.317 42.4364 5.36366C42.3535 5.42199 42.2469 5.45698 42.1641 5.48032C42.0694 5.50364 41.9747 5.50364 41.8918 5.48032C41.8326 5.48032 41.7734 5.46865 41.7261 5.45698H41.5248C41.0395 5.45698 40.6488 5.59697 40.3174 5.86527C39.9741 6.14525 39.7491 6.54187 39.6189 7.06682V10.9048C39.6189 11.5464 39.2756 11.8847 38.6245 11.8847H38.6127C37.9498 11.8847 37.6183 11.5464 37.6183 10.9048V4.87371C37.6183 4.2321 37.9498 3.89381 38.6127 3.89381H38.6245C39.2756 3.89381 39.6189 4.12711 39.6189 4.58208C39.9149 4.29043 40.2345 4.0688 40.5541 3.9288C40.8619 3.80049 41.2407 3.73049 41.6787 3.73049H41.8681C41.9023 3.73049 41.9364 3.73319 41.9719 3.73599H41.9721C42.0104 3.73901 42.0501 3.74216 42.0931 3.74216Z" fill="#231916"/>
<path fill-rule="evenodd" clip-rule="evenodd" d="M47.7904 10.1672C47.5655 10.2022 47.3287 10.2139 47.0919 10.2139C46.5356 10.2139 46.0975 10.0856 45.7542 9.80561C45.4109 9.54897 45.1979 9.05902 45.1268 8.35908H49.2346C49.5661 8.35908 49.8147 8.27743 50.0041 8.09077C50.1698 7.9158 50.2527 7.67081 50.2408 7.33252C50.1816 6.11931 49.8738 5.19772 49.3056 4.54446C48.7374 3.90286 47.8732 3.56456 46.7368 3.56456C46.1331 3.56456 45.6003 3.68121 45.1624 3.89119C44.7007 4.11284 44.3219 4.42781 44.0377 4.78943C43.7181 5.18607 43.4932 5.61768 43.3511 6.10764C43.1973 6.60926 43.1262 7.15753 43.1262 7.71747C43.1262 8.35908 43.2091 8.95403 43.4103 9.45564C43.5879 9.98058 43.8602 10.4122 44.2035 10.7622C44.5468 11.1238 44.9374 11.4038 45.4228 11.6021C45.8963 11.7887 46.4053 11.8821 46.9736 11.8821C47.3997 11.8821 47.8022 11.8587 48.1692 11.8004C48.5243 11.7304 48.9031 11.6021 49.3056 11.4388C49.5897 11.2988 49.7792 11.1121 49.862 10.9022C49.9212 10.7039 49.8975 10.4822 49.7673 10.2256C49.6253 9.98058 49.4595 9.8406 49.2583 9.81726C49.0334 9.78227 48.7729 9.8406 48.477 9.96893C48.2165 10.0856 47.9916 10.1439 47.7904 10.1672ZM46.0265 5.36104C46.1911 5.29156 46.4374 5.24504 46.7306 5.2444C47.0003 5.24504 47.2235 5.29156 47.4116 5.36104C47.5773 5.44271 47.7312 5.53603 47.8496 5.66436C47.9679 5.80434 48.0508 5.94432 48.1218 6.10764C48.181 6.2943 48.2284 6.46927 48.2521 6.66758H45.1624C45.186 6.46927 45.2452 6.2943 45.3162 6.10764C45.3754 5.94432 45.4583 5.80434 45.5767 5.66436C45.6832 5.5477 45.8253 5.44271 46.0265 5.36104Z" fill="#231916"/>
<path d="M51.2707 5.30083C51.1523 4.8692 51.1879 4.53089 51.3654 4.27425C51.5312 4.05262 51.8034 3.92429 52.1704 3.92429C52.6676 3.92429 52.9754 4.21592 53.1056 4.78755L54.0763 9.11544L55.2601 4.76421C55.4022 4.20427 55.7691 3.92429 56.3729 3.92429H56.6452C57.2252 3.92429 57.5922 4.20427 57.7579 4.76421L58.9417 9.12711L59.9243 4.78755C60.0427 4.21592 60.3623 3.92429 60.8713 3.92429C61.2028 3.92429 61.4514 4.04095 61.6526 4.25093C61.842 4.47258 61.8657 4.82254 61.7473 5.30083L60.2794 11.0869C60.1374 11.6469 59.7704 11.9268 59.1903 11.9268H58.6813C58.0894 11.9268 57.7106 11.6469 57.5685 11.0869L56.5149 7.1673L55.4614 11.0869C55.3075 11.6469 54.9405 11.9268 54.3486 11.9268H53.8396C53.2477 11.9268 52.8925 11.6469 52.7505 11.0869L51.2707 5.30083Z" fill="#231916"/>
<path d="M11.1038 2.37006C11.6474 2.37006 12.0881 1.93717 12.0881 1.40318C12.0881 0.869181 11.6474 0.436291 11.1038 0.436291C10.5602 0.436291 10.1196 0.869181 10.1196 1.40318C10.1196 1.93717 10.5602 2.37006 11.1038 2.37006Z" fill="#231916"/>
</g>
</g>
</g>
</g>
</g>
</g>
</g>
</g>
<defs>
<linearGradient id="paint0_linear_1176_5979" x1="720" y1="0" x2="720" y2="100" gradientUnits="userSpaceOnUse">
<stop offset="0.5" stop-color="#F4F4F8"/>
<stop offset="1" stop-color="#F4F4F8" stop-opacity="0"/>
</linearGradient>
<clipPath id="clip0_1176_5979">
<rect width="1920" height="3306" fill="white" transform="translate(-295 -48)"/>
</clipPath>
</defs>
</svg>
